{
	"asset":{
		"generator":"Khronos glTF Blender I/O v3.5.30",
		"version":"2.0"
	},
	"scene":0,
	"scenes":[
		{
			"name":"Scene",
			"nodes":[
				0
			]
		}
	],
	"nodes":[
		{
			"mesh":0,
			"name":"apple.027",
			"rotation":[
				-0.0073868632316589355,
				-0.9846769571304321,
				0.05916301906108856,
				0.1638794094324112
			],
			"translation":[
				-0.8568946123123169,
				0.585900604724884,
				-0.478443443775177
			]
		}
	],
	"materials":[
		{
			"doubleSided":true,
			"name":"Material.001",
			"pbrMetallicRoughness":{
				"baseColorTexture":{
					"index":0
				},
				"metallicFactor":0,
				"roughnessFactor":0.5
			}
		},
		{
			"doubleSided":true,
			"name":"Material.002",
			"pbrMetallicRoughness":{
				"baseColorFactor":[
					0.8000000715255737,
					0.7871004343032837,
					0.5206077694892883,
					1
				],
				"metallicFactor":0,
				"roughnessFactor":0.6181102395057678
			}
		}
	],
	"meshes":[
		{
			"name":"Sphere.030",
			"primitives":[
				{
					"attributes":{
						"POSITION":0,
						"TEXCOORD_0":1,
						"NORMAL":2
					},
					"indices":3,
					"material":0
				},
				{
					"attributes":{
						"POSITION":4,
						"TEXCOORD_0":5,
						"NORMAL":6
					},
					"indices":7,
					"material":1
				}
			]
		}
	],
	"textures":[
		{
			"sampler":0,
			"source":0
		}
	],
	"images":[
		{
			"bufferView":4,
			"mimeType":"image/jpeg",
			"name":"apple-g8bdee7b15_640"
		}
	],
	"accessors":[
		{
			"bufferView":0,
			"componentType":5126,
			"count":385,
			"max":[
				0.6280289888381958,
				0.703437864780426,
				0.003711998462677002
			],
			"min":[
				-0.12118963897228241,
				-0.9833342432975769,
				-1.0155333280563354
			],
			"type":"VEC3"
		},
		{
			"bufferView":1,
			"componentType":5126,
			"count":385,
			"type":"VEC2"
		},
		{
			"bufferView":2,
			"componentType":5126,
			"count":385,
			"type":"VEC3"
		},
		{
			"bufferView":3,
			"componentType":5123,
			"count":1893,
			"type":"SCALAR"
		},
		{
			"bufferView":5,
			"componentType":5126,
			"count":139,
			"max":[
				0.6280289888381958,
				0.703437864780426,
				0.0037119819317013025
			],
			"min":[
				-0.121189646422863,
				-0.9833342432975769,
				-1.0155333280563354
			],
			"type":"VEC3"
		},
		{
			"bufferView":6,
			"componentType":5126,
			"count":139,
			"type":"VEC2"
		},
		{
			"bufferView":7,
			"componentType":5126,
			"count":139,
			"type":"VEC3"
		},
		{
			"bufferView":8,
			"componentType":5123,
			"count":405,
			"type":"SCALAR"
		}
	],
	"bufferViews":[
		{
			"buffer":0,
			"byteLength":4620,
			"byteOffset":0,
			"target":34962
		},
		{
			"buffer":0,
			"byteLength":3080,
			"byteOffset":4620,
			"target":34962
		},
		{
			"buffer":0,
			"byteLength":4620,
			"byteOffset":7700,
			"target":34962
		},
		{
			"buffer":0,
			"byteLength":3786,
			"byteOffset":12320,
			"target":34963
		},
		{
			"buffer":0,
			"byteLength":22333,
			"byteOffset":16108
		},
		{
			"buffer":0,
			"byteLength":1668,
			"byteOffset":38444,
			"target":34962
		},
		{
			"buffer":0,
			"byteLength":1112,
			"byteOffset":40112,
			"target":34962
		},
		{
			"buffer":0,
			"byteLength":1668,
			"byteOffset":41224,
			"target":34962
		},
		{
			"buffer":0,
			"byteLength":810,
			"byteOffset":42892,
			"target":34963
		}
	],
	"samplers":[
		{
			"magFilter":9729,
			"minFilter":9987
		}
	],
	"buffers":[
		{
			"byteLength":43704,
			"uri":"data:application/octet-stream;base64,"
		}
	]
}
