{
	"asset":{
		"generator":"Khronos glTF Blender I/O v3.5.30",
		"version":"2.0"
	},
	"scene":0,
	"scenes":[
		{
			"name":"Scene",
			"nodes":[
				0
			]
		}
	],
	"nodes":[
		{
			"mesh":0,
			"name":"apple.030",
			"rotation":[
				0,
				-0.6724510788917542,
				0,
				0.7401415705680847
			],
			"translation":[
				-0.2589605450630188,
				0.8815463781356812,
				-1.3956668376922607
			]
		}
	],
	"materials":[
		{
			"doubleSided":true,
			"name":"Material.001",
			"pbrMetallicRoughness":{
				"baseColorTexture":{
					"index":0
				},
				"metallicFactor":0,
				"roughnessFactor":0.5
			}
		},
		{
			"doubleSided":true,
			"name":"Material.002",
			"pbrMetallicRoughness":{
				"baseColorFactor":[
					0.8000000715255737,
					0.7871004343032837,
					0.5206077694892883,
					1
				],
				"metallicFactor":0,
				"roughnessFactor":0.6181102395057678
			}
		}
	],
	"meshes":[
		{
			"name":"Sphere.033",
			"primitives":[
				{
					"attributes":{
						"POSITION":0,
						"TEXCOORD_0":1,
						"NORMAL":2
					},
					"indices":3,
					"material":0
				},
				{
					"attributes":{
						"POSITION":4,
						"TEXCOORD_0":5,
						"NORMAL":6
					},
					"indices":7,
					"material":1
				}
			]
		}
	],
	"textures":[
		{
			"sampler":0,
			"source":0
		}
	],
	"images":[
		{
			"bufferView":4,
			"mimeType":"image/jpeg",
			"name":"apple-g8bdee7b15_640"
		}
	],
	"accessors":[
		{
			"bufferView":0,
			"componentType":5126,
			"count":450,
			"max":[
				0.9353921413421631,
				0.620796799659729,
				0.031122520565986633
			],
			"min":[
				-0.07565852999687195,
				-1.0087522268295288,
				-0.7085591554641724
			],
			"type":"VEC3"
		},
		{
			"bufferView":1,
			"componentType":5126,
			"count":450,
			"type":"VEC2"
		},
		{
			"bufferView":2,
			"componentType":5126,
			"count":450,
			"type":"VEC3"
		},
		{
			"bufferView":3,
			"componentType":5123,
			"count":2229,
			"type":"SCALAR"
		},
		{
			"bufferView":5,
			"componentType":5126,
			"count":157,
			"max":[
				0.9353921413421631,
				0.620796799659729,
				0.031122509390115738
			],
			"min":[
				-0.07565853744745255,
				-1.0087522268295288,
				-0.7085592150688171
			],
			"type":"VEC3"
		},
		{
			"bufferView":6,
			"componentType":5126,
			"count":157,
			"type":"VEC2"
		},
		{
			"bufferView":7,
			"componentType":5126,
			"count":157,
			"type":"VEC3"
		},
		{
			"bufferView":8,
			"componentType":5123,
			"count":459,
			"type":"SCALAR"
		}
	],
	"bufferViews":[
		{
			"buffer":0,
			"byteLength":5400,
			"byteOffset":0,
			"target":34962
		},
		{
			"buffer":0,
			"byteLength":3600,
			"byteOffset":5400,
			"target":34962
		},
		{
			"buffer":0,
			"byteLength":5400,
			"byteOffset":9000,
			"target":34962
		},
		{
			"buffer":0,
			"byteLength":4458,
			"byteOffset":14400,
			"target":34963
		},
		{
			"buffer":0,
			"byteLength":22333,
			"byteOffset":18860
		},
		{
			"buffer":0,
			"byteLength":1884,
			"byteOffset":41196,
			"target":34962
		},
		{
			"buffer":0,
			"byteLength":1256,
			"byteOffset":43080,
			"target":34962
		},
		{
			"buffer":0,
			"byteLength":1884,
			"byteOffset":44336,
			"target":34962
		},
		{
			"buffer":0,
			"byteLength":918,
			"byteOffset":46220,
			"target":34963
		}
	],
	"samplers":[
		{
			"magFilter":9729,
			"minFilter":9987
		}
	],
	"buffers":[
		{
			"byteLength":47140,
			"uri":"data:application/octet-stream;base64,"
		}
	]
}
