{
	"asset":{
		"generator":"Khronos glTF Blender I/O v3.5.30",
		"version":"2.0"
	},
	"scene":0,
	"scenes":[
		{
			"name":"Scene",
			"nodes":[
				0
			]
		}
	],
	"nodes":[
		{
			"mesh":0,
			"name":"Cylinder"
		}
	],
	"meshes":[
		{
			"name":"Cylinder.003",
			"primitives":[
				{
					"attributes":{
						"POSITION":0,
						"TEXCOORD_0":1,
						"NORMAL":2
					},
					"indices":3
				}
			]
		}
	],
	"accessors":[
		{
			"bufferView":0,
			"componentType":5126,
			"count":2221,
			"max":[
				0.9998185634613037,
				1.465000033378601,
				0.9999775886535645
			],
			"min":[
				-0.9998185634613037,
				1.465000033378601,
				-0.9999775886535645
			],
			"type":"VEC3"
		},
		{
			"bufferView":1,
			"componentType":5126,
			"count":2221,
			"type":"VEC2"
		},
		{
			"bufferView":2,
			"componentType":5126,
			"count":2221,
			"type":"VEC3"
		},
		{
			"bufferView":3,
			"componentType":5123,
			"count":12072,
			"type":"SCALAR"
		}
	],
	"bufferViews":[
		{
			"buffer":0,
			"byteLength":26652,
			"byteOffset":0,
			"target":34962
		},
		{
			"buffer":0,
			"byteLength":17768,
			"byteOffset":26652,
			"target":34962
		},
		{
			"buffer":0,
			"byteLength":26652,
			"byteOffset":44420,
			"target":34962
		},
		{
			"buffer":0,
			"byteLength":24144,
			"byteOffset":71072,
			"target":34963
		}
	],
	"buffers":[
		{
			"byteLength":95216,
			"uri":"data:application/octet-stream;base64,"
		}
	]
}
